<svg width="15" height="15" viewBox="0 0 15 15" fill="none" xmlns="http://www.w3.org/2000/svg">
<path d="M8.67189 9.73726H0.923309V7.27277H8.58666C9.16431 7.27277 9.6378 7.18754 10.0071 7.01709C10.3764 6.84664 10.6487 6.60516 10.8239 6.29266C10.9991 5.98016 11.0867 5.61084 11.0867 5.1847C11.0867 4.76804 10.9991 4.39162 10.8239 4.05544C10.6487 3.71927 10.3812 3.45175 10.0213 3.25288C9.66147 3.05402 9.21166 2.95459 8.67189 2.95459H6.04405V15H2.99007V0.45459H8.67189C9.82246 0.45459 10.8073 0.660556 11.6264 1.07249C12.4503 1.47968 13.08 2.0384 13.5156 2.74862C13.9512 3.45412 14.1667 4.25431 14.1619 5.14919C14.1667 6.08669 13.9465 6.89872 13.5014 7.58527C13.0564 8.27183 12.4219 8.80213 11.598 9.17618C10.7742 9.55023 9.79878 9.73726 8.67189 9.73726ZM9.21876 10.6748V13.1392H0.923309V10.6748H9.21876Z" fill="#2D3440"/>
</svg>
