<?xml version="1.0" encoding="utf-8"?>
<!-- Generator: Adobe Illustrator 22.0.1, SVG Export Plug-In . SVG Version: 6.00 Build 0)  -->
<svg version="1.1" id="Слой_1" xmlns="http://www.w3.org/2000/svg" xmlns:xlink="http://www.w3.org/1999/xlink" x="0px" y="0px"
	 viewBox="0 0 16 16" style="enable-background:new 0 0 16 16;" xml:space="preserve">
<style type="text/css">
	.st0{fill:#2D3440;}
</style>
<path class="st0" d="M15.3,0.7c-0.2-0.2-0.4-0.4-0.7-0.5C14.3,0,14,0,13.7,0H2.3H1.9C1.7,0,1.6,0.1,1.5,0.2C1.2,0.3,0.9,0.4,0.7,0.7
	C0.2,1.1,0,1.7,0,2.3v11.4c0,0.6,0.2,1.2,0.7,1.6s1,0.7,1.6,0.7h11.4c0.6,0,1.2-0.2,1.6-0.7c0.2-0.2,0.4-0.5,0.5-0.8
	c0.1-0.1,0.2-0.3,0.2-0.4V2.3C16,1.7,15.8,1.2,15.3,0.7z M14.7,13.7C14.7,13.7,14.7,13.7,14.7,13.7c0,0.3-0.1,0.5-0.3,0.7
	c-0.2,0.2-0.4,0.3-0.7,0.3H2.3c-0.3,0-0.5-0.1-0.7-0.3c-0.2-0.2-0.3-0.4-0.3-0.7V2.3c0-0.3,0.1-0.5,0.3-0.7C1.8,1.4,2,1.3,2.3,1.3
	h11.4c0.2,0,0.3,0,0.4,0.1c0.1,0,0.1,0.1,0.3,0.2c0.2,0.2,0.3,0.4,0.3,0.7V13.7z"/>
</svg>
